<svg xmlns="http://www.w3.org/2000/svg" width="324" height="205" viewBox="0 0 324 205" fill="none">
<rect y="0.000976562" width="324" height="204.2" rx="10" fill="#141414"/>
<mask id="mask0" mask-type="alpha" maskUnits="userSpaceOnUse" x="0" y="0" width="324" height="205">
<rect y="0.000976562" width="324" height="204.2" rx="10" fill="#141414"/>
</mask>
<g mask="url(#mask0)">
<g opacity="0.15">
<rect x="163.555" y="196.6" width="110.266" height="110.266" transform="rotate(-135 163.555 196.6)" fill="url(#paint0_linear)"/>
<rect x="222.695" y="231.195" width="58.4891" height="58.4891" transform="rotate(-135 222.695 231.195)" fill="url(#paint1_linear)"/>
<rect x="233.955" y="102.028" width="75.6839" height="75.6839" rx="37.842" transform="rotate(-135 233.955 102.028)" fill="url(#paint2_linear)"/>
<rect x="80.6411" y="156.864" width="23.5341" height="23.5341" rx="11.7671" transform="rotate(-135 80.6411 156.864)" fill="url(#paint3_linear)"/>
<rect x="127.903" y="65.5527" width="42.902" height="42.902" transform="rotate(-135 127.903 65.5527)" fill="url(#paint4_linear)"/>
</g>
</g>
<path d="M311.004 33.3462H305.069V39.2813H311.004V33.3462Z" fill="white"/>
<path d="M236.577 39.279C231.344 39.279 227.831 36.3655 227.55 32.5694H233.489C233.628 33.9396 234.859 34.8518 236.51 34.8518C238.056 34.8518 238.864 34.15 238.864 33.2712C238.864 30.112 228.185 32.3944 228.185 25.1933C228.185 21.8552 231.031 19.1147 236.16 19.1147C241.219 19.1147 244.028 21.926 244.417 25.789H238.86C238.685 24.4541 237.664 23.5734 235.978 23.5734C234.572 23.5734 233.797 24.1376 233.797 25.0852C233.797 28.2129 244.409 25.9974 244.512 33.3066C244.516 36.7135 241.496 39.279 236.577 39.279Z" fill="white"/>
<path d="M266.966 13.001H272.972V39.0001H266.966V13.001Z" fill="white"/>
<path d="M297.426 13.001V19.974C296.182 19.4216 294.805 19.1149 293.353 19.1149C287.781 19.1149 283.27 23.6267 283.27 29.1941C283.27 34.7655 287.781 39.2772 293.353 39.2772C298.841 39.2772 303.304 34.8893 303.426 29.43C303.434 29.3514 303.434 29.2728 303.434 29.1941V13.001H297.426ZM297.448 29.43C297.326 31.5886 295.539 33.3009 293.353 33.3009C291.084 33.3009 289.248 31.4647 289.248 29.1961C289.248 26.9314 291.084 25.0952 293.353 25.0952C295.456 25.0952 297.19 26.6797 297.426 28.7184C297.444 28.8756 297.454 29.0349 297.454 29.1961C297.455 29.2728 297.452 29.3514 297.448 29.43Z" fill="white"/>
<path d="M275.64 21.3755H281.645V38.9963H275.64V21.3755Z" fill="white"/>
<path d="M281.575 13.001H275.64V19.3253H281.575V13.001Z" fill="white"/>
<path d="M255.232 19.1147C249.665 19.1147 245.153 23.6265 245.153 29.1939C245.153 34.7653 249.665 39.2771 255.232 39.2771C260.803 39.2771 265.315 34.7653 265.315 29.1939C265.315 23.6265 260.803 19.1147 255.232 19.1147ZM255.232 33.3007C252.967 33.3007 251.131 31.4646 251.131 29.1959C251.131 26.9312 252.967 25.095 255.232 25.095C257.501 25.095 259.337 26.9312 259.337 29.1959C259.337 31.4626 257.501 33.3007 255.232 33.3007Z" fill="white"/>
<path d="M277.873 155.935C278.193 155.993 278.659 155.993 279.153 155.993C281.856 156.007 283.324 154.475 283.324 151.82C283.338 149.499 282.03 148.025 279.355 148.025C278.701 148.025 278.207 148.084 277.873 148.156V155.935ZM276.594 147.222C277.378 147.106 278.295 147.019 279.298 147.019C281.115 147.019 282.408 147.441 283.266 148.244C284.153 149.048 284.661 150.185 284.661 151.776C284.661 153.38 284.153 154.694 283.252 155.6C282.322 156.519 280.809 157.015 278.905 157.015C277.989 157.015 277.248 156.986 276.594 156.898V147.222" fill="white"/>
<path d="M291.349 152.316H287.553V155.862H291.799V156.927H286.274V147.092H291.581V148.157H287.553V151.265H291.349V152.316Z" fill="white"/>
<path d="M294.704 155.963C294.965 156.007 295.314 156.023 295.765 156.023C297.074 156.023 298.281 155.541 298.281 154.111C298.281 152.783 297.132 152.213 295.75 152.213H294.704V155.963ZM294.704 151.265H295.852C297.175 151.265 297.961 150.55 297.961 149.602C297.961 148.463 297.102 147.996 295.824 147.996C295.241 147.996 294.907 148.04 294.704 148.084V151.265ZM293.439 147.238C293.991 147.106 294.878 147.019 295.75 147.019C297.016 147.019 297.829 147.238 298.425 147.734C298.935 148.113 299.254 148.696 299.254 149.47C299.254 150.434 298.615 151.265 297.597 151.631V151.673C298.527 151.892 299.618 152.665 299.618 154.125C299.618 154.971 299.283 155.614 298.775 156.095C298.105 156.722 297.001 157.015 295.401 157.015C294.529 157.015 293.861 156.957 293.439 156.898V147.238" fill="white"/>
<path d="M302.582 147.092V156.927H301.303V147.092H302.582" fill="white"/>
<path d="M306.655 148.172H303.674V147.092H310.929V148.172H307.935V156.927H306.655V148.172Z" fill="white"/>
<path d="M275.311 168.69L270.589 190.856H264.877L269.6 168.69H275.311ZM299.344 183.002L302.353 174.679L304.082 183.002H299.344ZM305.718 190.856H311.001L306.39 168.69H301.513C300.418 168.69 299.492 169.33 299.083 170.318L290.512 190.856H296.509L297.701 187.546H305.029L305.718 190.856ZM290.81 183.618C290.834 177.768 282.75 177.447 282.807 174.833C282.823 174.037 283.578 173.193 285.228 172.976C286.048 172.87 288.302 172.787 290.862 173.967L291.864 169.268C290.489 168.767 288.72 168.286 286.521 168.286C280.875 168.286 276.9 171.299 276.867 175.613C276.832 178.803 279.703 180.583 281.869 181.644C284.093 182.731 284.84 183.427 284.832 184.398C284.817 185.886 283.056 186.54 281.414 186.568C278.542 186.613 276.876 185.789 275.546 185.168L274.511 190.025C275.846 190.641 278.309 191.176 280.865 191.201C286.864 191.201 290.79 188.226 290.81 183.618V183.618ZM267.15 168.69L257.895 190.856H251.856L247.303 173.167C247.026 172.076 246.786 171.677 245.944 171.219C244.572 170.472 242.305 169.771 240.31 169.335L240.445 168.69H250.165C251.404 168.69 252.518 169.518 252.799 170.949L255.205 183.778L261.149 168.69H267.15Z" fill="white"/>
<defs>
<linearGradient id="paint0_linear" x1="218.688" y1="196.6" x2="218.688" y2="306.866" gradientUnits="userSpaceOnUse">
<stop stop-color="white" stop-opacity="0.3"/>
<stop offset="1" stop-color="white" stop-opacity="0.3"/>
</linearGradient>
<linearGradient id="paint1_linear" x1="251.939" y1="231.195" x2="251.939" y2="289.684" gradientUnits="userSpaceOnUse">
<stop stop-color="white" stop-opacity="0.3"/>
<stop offset="1" stop-color="white" stop-opacity="0.3"/>
</linearGradient>
<linearGradient id="paint2_linear" x1="271.797" y1="102.028" x2="271.797" y2="177.712" gradientUnits="userSpaceOnUse">
<stop stop-color="white" stop-opacity="0.3"/>
<stop offset="1" stop-color="white" stop-opacity="0.3"/>
</linearGradient>
<linearGradient id="paint3_linear" x1="92.4082" y1="156.864" x2="92.4082" y2="180.398" gradientUnits="userSpaceOnUse">
<stop stop-color="white" stop-opacity="0.3"/>
<stop offset="1" stop-color="white" stop-opacity="0.3"/>
</linearGradient>
<linearGradient id="paint4_linear" x1="149.354" y1="65.5527" x2="149.354" y2="108.455" gradientUnits="userSpaceOnUse">
<stop stop-color="white" stop-opacity="0.3"/>
<stop offset="1" stop-color="white" stop-opacity="0.3"/>
</linearGradient>
</defs>
</svg>